<svg width="267.7" height="77.088" viewBox="0 0 70.828 20.396" xmlns="http://www.w3.org/2000/svg">
  <defs>
    <linearGradient id="b" x1="59.956" x2="88.399" y1="243.21" y2="243.21" gradientUnits="userSpaceOnUse">
      <stop offset="0"/>
      <stop stop-opacity="0" offset="1"/>
    </linearGradient>
    <radialGradient id="a" cx="37.935" cy="243.32" r="19.773" gradientTransform="matrix(1 0 0 .3249 0 164.27)" gradientUnits="userSpaceOnUse">
      <stop stop-color="green" offset="0"/>
      <stop stop-color="green" stop-opacity="0" offset="1"/>
    </radialGradient>
  </defs>
  <path d="M.766 14.164h69.978v6.148H.766v-6.148z" fill="#1a1a1a" stroke="#000" stroke-linejoin="round" stroke-width=".168"/>
  <g fill="#e3dbdb" aria-label="ИСТИННЫЙ ДОКУМЕНТ ВАЖНЕЕ">
    <path d="M2.745 18.853V15.51h.437v2.752L4.31 15.51h.574v3.343h-.437v-2.752l-1.129 2.752zM7.595 18.734q-.172.092-.354.137-.181.047-.385.047-.643 0-.999-.455-.354-.455-.354-1.279 0-.82.357-1.276.358-.459.996-.459.204 0 .385.047.182.045.354.137v.463q-.166-.136-.356-.208-.19-.072-.383-.072-.441 0-.66.34-.22.341-.22 1.028 0 .686.22 1.026.219.34.66.34.197 0 .385-.071.19-.072.354-.209zM8.057 15.51h2.55v.38H9.563v2.963h-.455v-2.962h-1.05zM11.021 18.853V15.51h.437v2.752l1.128-2.752h.574v3.343h-.437v-2.752l-1.129 2.752zM13.776 15.51h.455v1.37h1.238v-1.37h.454v3.343h-.454v-1.592H14.23v1.592h-.455zM16.535 15.51h.455v1.37h1.238v-1.37h.454v3.343h-.454v-1.592H16.99v1.592h-.455zM21.071 18.853V15.51h.455v3.343zm-1.487-.372h.204q.228 0 .403-.165.134-.126.134-.462 0-.298-.136-.463-.135-.166-.401-.166h-.204zm-.452.372V15.51h.452v1.343h.204q.434 0 .72.253.29.253.29.748 0 .49-.29.746-.288.253-.72.253zM22.424 14.596h.266q.027.12.14.186.111.063.295.063.186 0 .293-.06.11-.064.144-.189h.266q-.025.266-.204.405-.177.137-.5.137T22.627 15t-.202-.405zm-.367 4.257V15.51h.436v2.752l1.129-2.752h.573v3.343h-.436V16.1l-1.129 2.752zM29.679 18.472h.271v1.102h-.38v-.721h-1.853v.72h-.38v-1.101h.172q.108 0 .195-.743.067-.574.067-1.176v-1.044h1.908zm-.455-2.582h-.998v.665q0 .502-.063 1.144-.06.643-.074.675-.011.03-.011.049 0 .049.105.049h1.041zM32.048 17.185q0-.737-.152-1.052-.15-.316-.495-.316-.343 0-.495.316-.15.315-.15 1.052 0 .735.15 1.05.152.316.495.316.345 0 .495-.314.152-.315.152-1.052zm.472 0q0 .873-.277 1.303-.276.43-.842.43t-.842-.427q-.276-.428-.276-1.306 0-.876.276-1.305.278-.43.842-.43.566 0 .842.43.277.43.277 1.305zM33.088 15.51h.455v1.487l1.413-1.487h.53l-1.3 1.366 1.338 1.977h-.546l-1.09-1.675-.345.368v1.307h-.455zM37.199 17.901q-.132.354-.287.602-.098.166-.268.262-.155.088-.36.088h-.332v-.385h.244q.181 0 .284-.106.1-.103.177-.275.031-.072.065-.166l-.95-2.412h.486l.697 1.86.69-1.86h.477zM38.491 15.51h.605l.577 1.702.583-1.702h.606v3.343h-.418V15.9l-.596 1.762h-.343l-.598-1.762v2.953h-.416zM41.498 15.51h1.984v.38H41.95v.99h1.465v.381H41.95v1.212h1.574v.38h-2.026zM44.123 15.51h.455v1.37h1.238v-1.37h.454v3.343h-.454v-1.592h-1.238v1.592h-.455zM46.68 15.51h2.55v.38h-1.045v2.963h-.455v-2.962h-1.05zM52.919 17.256v1.225h.535q.394 0 .562-.137.168-.139.168-.454 0-.327-.177-.48-.177-.154-.553-.154zm0-1.375v1.008h.526q.327 0 .473-.126.148-.125.148-.405 0-.253-.146-.365-.143-.112-.475-.112zm-.455-.372h.99q.513 0 .79.222.278.222.278.627 0 .307-.147.484-.146.177-.44.221.33.05.516.283.188.23.188.589 0 .454-.298.687-.298.23-.887.23h-.99zM56.231 15.908l-.477 1.71h.954zm-.273-.399h.548l1.024 3.344h-.468l-.247-.871h-1.17l-.243.87h-.468zM58.781 15.51h.419v1.332l.636-1.332h.463l-.642 1.348.68 1.995h-.44l-.498-1.455-.2.416v1.04h-.418v-1.04l-.2-.416-.496 1.455h-.442l.681-1.995-.642-1.348h.463l.636 1.332zM60.676 15.51h.455v1.37h1.238v-1.37h.454v3.343h-.454v-1.592H61.13v1.592h-.455zM63.569 15.51h1.984v.38h-1.532v.99h1.465v.381H64.02v1.212h1.574v.38H63.57zM66.328 15.51h1.984v.38H66.78v.99h1.465v.381H66.78v1.212h1.574v.38h-2.026z"/>
  </g>
  <g fill="#1a1a1a" stroke="url(#a)" stroke-width=".265" aria-label="TRUE" transform="translate(-18.162 -236.67)">
    <path d="M18.294 237.03h9.418v1.406H23.85v10.939h-1.678v-10.94h-3.878zM34.376 243.54q.645.165 1.1.628.454.455 1.132 1.828l1.679 3.373h-1.794l-1.472-3.117q-.637-1.331-1.15-1.712-.504-.388-1.322-.388h-1.596v5.217h-1.679v-12.344h3.44q2.034 0 3.117.918 1.083.918 1.083 2.654 0 1.224-.67 2-.661.77-1.868.943zm-3.423-5.143v4.382h1.827q1.2 0 1.786-.537.587-.537.587-1.645 0-1.067-.628-1.63-.62-.57-1.81-.57zM39.494 244.64v-7.607h1.678v8.368q0 .9.05 1.29.05.38.174.586.264.488.76.736.505.248 1.216.248.72 0 1.215-.248.496-.248.77-.736.123-.206.173-.587.05-.38.05-1.273v-8.384h1.67v7.607q0 1.893-.24 2.695-.232.794-.81 1.315-.546.488-1.25.727-.702.24-1.578.24-.868 0-1.571-.24t-1.257-.727q-.57-.513-.81-1.323-.24-.819-.24-2.687zM50.094 237.03h7.326v1.406h-5.656v3.654h5.408v1.406h-5.408v4.473h5.813v1.405h-7.483z"/>
  </g>
  <g stroke="url(#b)" stroke-width=".265" aria-label="DOC" transform="translate(-18.162 -236.67)">
    <path d="M62.527 239.23v7.946h.661q1.44 0 2.051-.901.612-.91.612-3.084 0-2.158-.612-3.06t-2.05-.9zm-2.44-2.2h2.614q3.026 0 4.357 1.447 1.331 1.44 1.331 4.713 0 3.283-1.33 4.738-1.332 1.447-4.358 1.447h-2.613z" fill="green"/>
    <path d="M74.235 239q-.934 0-1.364 1-.43.993-.43 3.217 0 2.216.43 3.216.43.992 1.364.992.943 0 1.373-.992.43-1 .43-3.216 0-2.224-.43-3.217-.43-1-1.373-1zm-4.333 4.217q0-3.167 1.092-4.788 1.1-1.62 3.24-1.62 2.15 0 3.242 1.62 1.1 1.621 1.1 4.788 0 3.158-1.1 4.779-1.091 1.62-3.241 1.62-2.142 0-3.241-1.62-1.092-1.62-1.092-4.78z" fill="red"/>
    <path d="M88.266 249.02q-.579.298-1.215.446-.637.15-1.34.15-2.497 0-3.812-1.646-1.314-1.645-1.314-4.754 0-3.117 1.314-4.763 1.315-1.645 3.812-1.645.703 0 1.348.149t1.207.446v2.712q-.628-.579-1.224-.843-.587-.273-1.215-.273-1.34 0-2.026 1.067-.678 1.058-.678 3.15 0 2.083.678 3.15.686 1.058 2.026 1.058.628 0 1.215-.264.596-.273 1.224-.852z" fill="#00f"/>
  </g>
</svg>
